<svg width="200" height="200" viewBox="0 0 100 100" xmlns="http://www.w3.org/2000/svg">
  <!-- Black Circle Background -->
  <circle cx="50" cy="50" r="50" fill="#1a1a1a" />
  
  <!-- Yellow Card -->
  <rect x="35" y="25" width="30" height="40" rx="3" fill="#FFE81C" />
  
  <!-- Hand (White Outline/Shape) -->
  <path d="M55 55 L55 70 Q55 75 50 75 L50 75 Q45 75 45 70 L45 60 L40 60 Q35 60 35 65 L35 70 Q35 80 45 85 L55 85 Q65 80 65 70 L65 55 Z" fill="none" stroke="white" stroke-width="3" stroke-linecap="round" stroke-linejoin="round" />
  
  <path d="M60 50 L60 65 M50 63 L40 55" stroke="white" stroke-width="3" stroke-linecap="round" />
  
  <!-- Improved Hand Representation (Simplified) -->
  <g transform="translate(0, 5)">
      <!-- Thumb -->
      <path d="M65 50 L65 65" stroke="white" stroke-width="4" stroke-linecap="round" />
      <!-- Fingers wrapping -->
      <path d="M35 60 L65 60" stroke="white" stroke-width="4" stroke-linecap="round" />
      <path d="M35 50 L35 70 Q35 80 50 80 L65 70" stroke="white" stroke-width="4" fill="none" stroke-linecap="round" />
  </g>
</svg>
